<svg width="26" height="26" viewBox="0 0 26 26" fill="none" xmlns="http://www.w3.org/2000/svg">
<path d="M18.0999 0.5C22.5249 0.5 25.4999 3.35 25.4999 7.5875V18.425C25.4999 22.6613 22.5249 25.5 18.0999 25.5H7.88738C3.47488 25.5 0.499878 22.6613 0.499878 18.425V7.5875C0.499878 3.35 3.47488 0.5 7.88738 0.5H18.0999ZM14.0624 7.65C13.6999 7.2875 13.0999 7.2875 12.7374 7.65C12.3749 8.025 12.3749 8.6125 12.7374 8.9875L15.8374 12.0625H7.89988C7.37488 12.0625 6.96238 12.4875 6.96238 13C6.96238 13.525 7.37488 13.9375 7.89988 13.9375H15.8374L12.7374 17.025C12.5624 17.2 12.4624 17.45 12.4624 17.6875C12.4624 17.9237 12.5624 18.1625 12.7374 18.35C13.0999 18.7125 13.6999 18.7125 14.0624 18.35L18.7749 13.6625C19.1249 13.3125 19.1249 12.6875 18.7749 12.3375L14.0624 7.65Z" fill="#7339E5"/>
</svg>
