<svg width="55" height="55" viewBox="0 0 55 55" fill="none" xmlns="http://www.w3.org/2000/svg">
<g id="Close Square">
<circle id="Ellipse 68" cx="28" cy="29" r="20" fill="#C66D6D"/>
<path id="Vector" fill-rule="evenodd" clip-rule="evenodd" d="M34.7899 35.424C34.4553 35.7585 34.0153 35.9281 33.5753 35.9281C33.133 35.9281 32.6953 35.7585 32.3584 35.424L28.0661 31.1317L23.7876 35.4102C23.453 35.7471 23.013 35.9144 22.573 35.9144C22.1353 35.9144 21.693 35.7471 21.3584 35.4102C20.687 34.7387 20.687 33.6525 21.3584 32.981L25.6347 28.7002L21.3584 24.424C20.687 23.7525 20.687 22.6662 21.3584 21.9947C22.0299 21.3233 23.1161 21.3233 23.7876 21.9947L28.0638 26.271L32.3355 21.9993C33.007 21.3278 34.0932 21.3278 34.7647 21.9993C35.4361 22.6708 35.4361 23.7571 34.7647 24.4285L30.4953 28.7002L34.7899 32.9925C35.4613 33.664 35.4613 34.7525 34.7899 35.424ZM28.073 6.38159C11.5776 6.38159 5.72925 12.2299 5.72925 28.7254C5.72925 45.2208 11.5776 51.0692 28.073 51.0692C44.5707 51.0692 50.4167 45.2208 50.4167 28.7254C50.4167 12.2299 44.5707 6.38159 28.073 6.38159Z" fill="#D9D9D9"/>
</g>
</svg>
