<svg width="12" height="12" viewBox="0 0 12 12" fill="none" xmlns="http://www.w3.org/2000/svg">
<g id="Filter">
<g id="Iconly/Bold/Filter">
<g id="Filter_2">
<path id="Vector" d="M2.71943 4.99022C1.76944 4.99022 1 4.23373 1 3.30039C1 2.3676 1.76944 1.61111 2.71943 1.61111C3.66887 1.61111 4.43887 2.3676 4.43887 3.30039C4.43887 4.23373 3.66887 4.99022 2.71943 4.99022ZM6.95836 4.02102C6.54225 4.02102 6.20447 3.68917 6.20447 3.28036C6.20447 2.87209 6.54225 2.5397 6.95836 2.5397L10.2461 2.5397C10.6622 2.5397 11 2.87209 11 3.28036C11 3.68917 10.6622 4.02102 10.2461 4.02102L6.95836 4.02102ZM9.28057 10.5C8.33057 10.5 7.56113 9.74351 7.56113 8.81072C7.56113 7.87739 8.33057 7.12089 9.28057 7.12089C10.23 7.12089 11 7.87739 11 8.81072C11 9.74351 10.23 10.5 9.28057 10.5ZM1.75333 9.55084C1.33778 9.55084 1 9.21899 1 8.81072C1 8.40191 1.33778 8.07006 1.75333 8.07006L5.04109 8.07006C5.4572 8.07006 5.79497 8.40191 5.79497 8.81072C5.79497 9.21899 5.4572 9.55084 5.04109 9.55084L1.75333 9.55084Z" fill="#D9D9D9"/>
</g>
</g>
</g>
</svg>
