<svg width="17" height="17" viewBox="0 0 17 17" fill="none" xmlns="http://www.w3.org/2000/svg">
<path fill-rule="evenodd" clip-rule="evenodd" d="M14.6801 16.3112C13.7793 16.3112 13.049 15.581 13.049 14.6801C13.049 13.7793 13.7793 13.049 14.6801 13.049C15.581 13.049 16.3112 13.7793 16.3112 14.6801C16.3112 15.581 15.581 16.3112 14.6801 16.3112ZM14.6801 9.78675C13.7793 9.78675 13.049 9.05647 13.049 8.15562C13.049 7.25478 13.7793 6.5245 14.6801 6.5245C15.581 6.5245 16.3112 7.25478 16.3112 8.15562C16.3112 9.05647 15.581 9.78675 14.6801 9.78675ZM14.6801 3.26225C13.7793 3.26225 13.049 2.53197 13.049 1.63112C13.049 0.730279 13.7793 0 14.6801 0C15.581 0 16.3112 0.730279 16.3112 1.63112C16.3112 2.53197 15.581 3.26225 14.6801 3.26225ZM8.15562 16.3112C7.25478 16.3112 6.5245 15.581 6.5245 14.6801C6.5245 13.7793 7.25478 13.049 8.15562 13.049C9.05647 13.049 9.78675 13.7793 9.78675 14.6801C9.78675 15.581 9.05647 16.3112 8.15562 16.3112ZM8.15562 9.78675C7.25478 9.78675 6.5245 9.05647 6.5245 8.15562C6.5245 7.25478 7.25478 6.5245 8.15562 6.5245C9.05647 6.5245 9.78675 7.25478 9.78675 8.15562C9.78675 9.05647 9.05647 9.78675 8.15562 9.78675ZM8.15562 3.26225C7.25478 3.26225 6.5245 2.53197 6.5245 1.63112C6.5245 0.730279 7.25478 0 8.15562 0C9.05647 0 9.78675 0.730279 9.78675 1.63112C9.78675 2.53197 9.05647 3.26225 8.15562 3.26225ZM1.63112 16.3112C0.730279 16.3112 0 15.581 0 14.6801C0 13.7793 0.730279 13.049 1.63112 13.049C2.53197 13.049 3.26225 13.7793 3.26225 14.6801C3.26225 15.581 2.53197 16.3112 1.63112 16.3112ZM1.63112 9.78675C0.730279 9.78675 0 9.05647 0 8.15562C0 7.25478 0.730279 6.5245 1.63112 6.5245C2.53197 6.5245 3.26225 7.25478 3.26225 8.15562C3.26225 9.05647 2.53197 9.78675 1.63112 9.78675ZM1.63112 3.26225C0.730279 3.26225 0 2.53197 0 1.63112C0 0.730279 0.730279 0 1.63112 0C2.53197 0 3.26225 0.730279 3.26225 1.63112C3.26225 2.53197 2.53197 3.26225 1.63112 3.26225Z" fill="#D9D9D9"/>
</svg>
