<svg width="55" height="55" viewBox="0 0 55 55" fill="none" xmlns="http://www.w3.org/2000/svg">
<g id="Tick Square">
<circle id="Ellipse 69" cx="28" cy="29" r="20" fill="#65A34F"/>
<path id="Vector" fill-rule="evenodd" clip-rule="evenodd" d="M37.4482 24.5019L26.5628 35.3781C26.2397 35.7012 25.8042 35.8823 25.3482 35.8823C24.8922 35.8823 24.4545 35.7012 24.1313 35.3781L18.6978 29.94C18.0263 29.2685 18.0263 28.18 18.6978 27.5085C19.3715 26.8371 20.4601 26.8417 21.1292 27.5085L25.3482 31.7321L35.0167 22.0703C35.6882 21.3989 36.7767 21.4012 37.4482 22.0703C38.1197 22.7418 38.1197 23.8304 37.4482 24.5019ZM28.073 6.38159C11.5776 6.38159 5.72925 12.2299 5.72925 28.7254C5.72925 45.2208 11.5776 51.0692 28.073 51.0692C44.5684 51.0692 50.4167 45.2208 50.4167 28.7254C50.4167 12.2299 44.5684 6.38159 28.073 6.38159Z" fill="#D9D9D9"/>
</g>
</svg>
