<svg width="24" height="24" viewBox="0 0 24 24" fill="none" xmlns="http://www.w3.org/2000/svg">
<g id="Profile">
<g id="Iconly/Light/Profile">
<g id="Profile_2">
<path id="Stroke-1" d="M6.81445 18.2729C6.81445 18.2389 6.81393 18.2316 6.81729 18.2273C6.81962 18.2244 6.82381 18.2229 6.83131 18.2152C6.89713 18.1468 7.1017 17.9896 7.5851 17.8276C8.57216 17.4966 10.0935 17.3462 11.9849 17.3462C13.8834 17.3462 15.4022 17.5017 16.3839 17.8356C16.8643 17.999 17.0679 18.1569 17.134 18.2263C17.138 18.2305 17.1412 18.2332 17.1438 18.2354C17.1542 18.2443 17.1545 18.2446 17.1545 18.2938C17.1545 18.3276 17.155 18.3348 17.1517 18.339C17.1494 18.3419 17.1452 18.3434 17.1377 18.3512C17.0718 18.4195 16.8673 18.5767 16.384 18.7388C15.3972 19.0698 13.8762 19.2205 11.9849 19.2205C10.0863 19.2205 8.56717 19.0651 7.58521 18.7313C7.10472 18.568 6.9011 18.41 6.83496 18.3407C6.83098 18.3365 6.82776 18.3338 6.82518 18.3316C6.81476 18.3226 6.81445 18.3224 6.81445 18.2729Z" stroke="#D9D9D9" stroke-width="4" stroke-linecap="round" stroke-linejoin="round"/>
<path id="Stroke-3" d="M9.38869 7.41645H9.3887V7.40969C9.3887 5.97672 10.5508 4.81445 11.9849 4.81445C13.4184 4.81445 14.5802 5.97617 14.5802 7.40969C14.5802 8.84376 13.4179 10.0059 11.9849 10.0059H11.9564C10.5342 9.99949 9.38388 8.84095 9.38869 7.41645Z" stroke="#D9D9D9" stroke-width="4" stroke-linecap="round" stroke-linejoin="round"/>
</g>
</g>
</g>
</svg>
