<svg width="52" height="42" viewBox="0 0 52 42" fill="none" xmlns="http://www.w3.org/2000/svg">
<g id="Partage eclair">
<rect id="Rectangle 40" width="52" height="42" rx="21" fill="#1E1E1E"/>
<g id="&#240;&#159;&#166;&#134; icon &#34;flash&#34;">
<path id="Vector" d="M25.1913 32.9167C25.0859 32.9165 24.9814 32.8946 24.8823 32.8517C24.6913 32.7683 24.5293 32.6109 24.4222 32.4046C24.3151 32.1984 24.2692 31.9553 24.2918 31.7142L24.9914 24.0334H19.6397C19.4746 24.0337 19.3126 23.9803 19.1711 23.8791C19.0295 23.7779 18.9137 23.6326 18.8362 23.4589C18.7587 23.2851 18.7223 23.0895 18.731 22.8929C18.7397 22.6964 18.7931 22.5064 18.8856 22.3434L26.0544 9.56002C26.1678 9.35997 26.334 9.21082 26.5266 9.13623C26.7192 9.06165 26.9272 9.06592 27.1175 9.14836C27.3005 9.22935 27.4567 9.37844 27.5631 9.57355C27.6695 9.76867 27.7203 9.99944 27.7081 10.2317L27.0085 17.9667H32.3601C32.5252 17.9664 32.6872 18.0197 32.8288 18.1209C32.9703 18.2221 33.0861 18.3674 33.1636 18.5412C33.2412 18.7149 33.2775 18.9106 33.2688 19.1071C33.2602 19.3036 33.2067 19.4936 33.1143 19.6567L25.9454 32.44C25.8621 32.587 25.7497 32.7074 25.6182 32.7905C25.4867 32.8736 25.3401 32.917 25.1913 32.9167Z" fill="url(#paint0_linear_1012_7602)"/>
</g>
</g>
<defs>
<linearGradient id="paint0_linear_1012_7602" x1="25.9999" y1="9.08325" x2="25.9999" y2="32.9167" gradientUnits="userSpaceOnUse">
<stop offset="0.25" stop-color="#7287D3"/>
<stop offset="1" stop-color="#B472D3" stop-opacity="0.56"/>
</linearGradient>
</defs>
</svg>
